<svg xmlns="http://www.w3.org/2000/svg" viewBox="0 0 42 42"><defs><style>.cls-1{fill:none;stroke:#000;stroke-miterlimit:10;}.cls-2{fill:#0069ff;}</style></defs><title>digitalocean-product-icon-domain-name-system</title><g id="Layer_2" data-name="Layer 2"><rect class="cls-1" x="-446" y="-580" width="37" height="38"/></g><g id="Layer_1" data-name="Layer 1"><path class="cls-2" d="M21,37.39A16.39,16.39,0,1,1,37.39,21,16.41,16.41,0,0,1,21,37.39ZM21,6.54A14.46,14.46,0,1,0,35.46,21,14.48,14.48,0,0,0,21,6.54Z"/><rect class="cls-2" x="20.04" y="5.57" width="1.93" height="30.85"/><rect class="cls-2" x="6.46" y="14.88" width="29.08" height="1.93"/><rect class="cls-2" x="6.46" y="25.19" width="29.08" height="1.93"/><path class="cls-2" d="M21,37.39c-5.27,0-8.67-12.18-8.67-16.39S15.73,4.61,21,4.61V6.54c-3.22,0-6.74,10.15-6.74,14.46S17.78,35.46,21,35.46Z"/><path class="cls-2" d="M21.12,37.39V35.46c3.21,0,6.74-10.15,6.74-14.46S24.33,6.54,21.12,6.54V4.61c5.26,0,8.67,12.18,8.67,16.39S26.38,37.39,21.12,37.39Z"/></g></svg>
